<?xml version="1.0" standalone="no"?><!DOCTYPE svg PUBLIC "-//W3C//DTD SVG 1.1//EN" "http://www.w3.org/Graphics/SVG/1.1/DTD/svg11.dtd"><svg t="1583206996579" class="icon" viewBox="0 0 1024 1024" version="1.1" xmlns="http://www.w3.org/2000/svg" p-id="1238" xmlns:xlink="http://www.w3.org/1999/xlink" width="200" height="200"><defs><style type="text/css"></style></defs><path d="M620.701538 382.030769l-178.806153 48.049231c-5.513846 1.575385-10.24 6.301538-11.815385 11.815385l-48.049231 178.806153c-3.150769 12.603077 7.876923 24.418462 20.48 20.48l178.806154-48.04923c5.513846-1.575385 10.24-6.301538 11.815385-11.815385l48.04923-178.806154c3.938462-11.815385-7.876923-23.630769-20.48-20.48z" p-id="1239"></path><path d="M398.572308 673.476923c-12.603077 0-25.206154-4.726154-34.658462-14.178461-12.603077-12.603077-17.329231-29.932308-12.603077-46.473847l48.049231-178.806153c4.726154-16.541538 17.329231-29.932308 34.658462-34.658462l178.806153-48.049231c16.541538-4.726154 34.658462 0 46.473847 12.603077 12.603077 12.603077 17.329231 29.932308 12.603076 46.473846l-48.04923 178.806154c-4.726154 16.541538-17.329231 29.932308-34.658462 34.658462l-178.806154 48.04923c-3.150769 1.575385-7.089231 1.575385-11.815384 1.575385z m59.864615-215.04l-39.384615 146.510769 146.510769-39.384615 39.384615-146.510769-146.510769 39.384615z m162.264615-76.406154z" p-id="1240"></path><path d="M551.384615 937.353846H472.615385c-212.676923 0-385.969231-173.292308-385.969231-385.969231V472.615385c0-212.676923 173.292308-385.969231 385.969231-385.969231h78.76923c212.676923 0 385.969231 173.292308 385.969231 385.969231v78.76923c0 212.676923-173.292308 385.969231-385.969231 385.969231zM472.615385 149.661538c-178.018462 0-322.953846 144.935385-322.953847 322.953847v78.76923c0 178.018462 144.935385 322.953846 322.953847 322.953847h78.76923c178.018462 0 322.953846-144.935385 322.953847-322.953847V472.615385c0-178.018462-144.935385-322.953846-322.953847-322.953847H472.615385z" p-id="1241"></path></svg>