<?xml version="1.0" standalone="no"?><!DOCTYPE svg PUBLIC "-//W3C//DTD SVG 1.1//EN" "http://www.w3.org/Graphics/SVG/1.1/DTD/svg11.dtd"><svg t="1586615337142" class="icon" viewBox="0 0 1024 1024" version="1.1" xmlns="http://www.w3.org/2000/svg" p-id="8523" xmlns:xlink="http://www.w3.org/1999/xlink" width="200" height="200"><defs><style type="text/css"></style></defs><path d="M960 960H64a64 64 0 0 1-64-64V128a64 64 0 0 1 64-64h896a64 64 0 0 1 64 64v768a64 64 0 0 1-64 64z m0-832H64v768h896V128z" p-id="8524"></path><path d="M192 768v-128h128v128H192z m0-320h128v128H192V448z m0-192h128v128H192V256zM384 768v-64h448v64H384z m0-256h448v64H384V512z m0-192h448v64H384V320z" p-id="8525"></path></svg>