<?xml version="1.0" standalone="no"?><!DOCTYPE svg PUBLIC "-//W3C//DTD SVG 1.1//EN" "http://www.w3.org/Graphics/SVG/1.1/DTD/svg11.dtd"><svg t="1583207241077" class="icon" viewBox="0 0 1024 1024" version="1.1" xmlns="http://www.w3.org/2000/svg" p-id="1176" xmlns:xlink="http://www.w3.org/1999/xlink" width="200" height="200"><defs><style type="text/css"></style></defs><path d="M870.4 439.466667c0-187.733333-153.6-341.333333-341.333333-341.333334s-341.333333 153.6-341.333334 341.333334c0 147.2 93.866667 270.933333 224 320-32 27.733333-51.2 68.266667-51.2 110.933333 0 17.066667 14.933333 32 32 32s32-14.933333 32-32c0-49.066667 44.8-89.6 100.266667-89.6h8.533333c55.466667 0 100.266667 40.533333 100.266667 89.6 0 17.066667 14.933333 32 32 32s32-14.933333 32-32c0-42.666667-19.2-83.2-51.2-110.933333 132.266667-46.933333 224-172.8 224-320z m-341.333333 277.333333c-153.6 0-277.333333-123.733333-277.333334-277.333333s123.733333-277.333333 277.333334-277.333334 277.333333 123.733333 277.333333 277.333334-123.733333 277.333333-277.333333 277.333333z" p-id="1177"></path></svg>