<?xml version="1.0" standalone="no"?><!DOCTYPE svg PUBLIC "-//W3C//DTD SVG 1.1//EN" "http://www.w3.org/Graphics/SVG/1.1/DTD/svg11.dtd"><svg t="1586702192234" class="icon" viewBox="0 0 1139 1024" version="1.1" xmlns="http://www.w3.org/2000/svg" p-id="9422" xmlns:xlink="http://www.w3.org/1999/xlink" width="222.4609375" height="200"><defs><style type="text/css"></style></defs><path d="M284.302222 286.008889c-62.805333 0-113.92 51.057778-113.92 113.834667 0 62.748444 51.114667 113.834667 113.92 113.834667s113.92-51.086222 113.92-113.834667C398.222222 337.066667 347.107556 286.008889 284.302222 286.008889zM284.302222 457.016889c-31.573333 0-57.258667-25.656889-57.258667-57.201778 0-31.544889 25.685333-57.230222 57.258667-57.230222s57.258667 25.656889 57.258667 57.230222C341.560889 431.36 315.875556 457.016889 284.302222 457.016889zM1004.174222 0.113778 133.916444 0.113778c-73.841778 0-133.916444 60.046222-133.916444 133.831111l0 501.532444c0 73.784889 60.074667 133.802667 133.916444 133.802667l694.528 0 309.560889 254.606222 0.113778-889.941333C1138.119111 60.16 1078.016 0.113778 1004.174222 0.113778zM1081.116444 885.390222l-228.892444-172.942222L133.916444 712.448c-42.467556 0-77.027556-34.531556-77.027556-76.970667L56.888889 133.944889c0-42.439111 34.56-76.970667 77.027556-76.970667l870.257778 0c42.496 0 77.056 34.531556 77.056 76.970667L1081.116444 885.390222zM568.746667 286.008889c-62.805333 0-113.92 51.057778-113.92 113.834667 0 62.748444 51.114667 113.834667 113.92 113.834667s113.92-51.086222 113.92-113.834667C682.666667 337.066667 631.552 286.008889 568.746667 286.008889zM568.746667 457.016889c-31.573333 0-57.258667-25.656889-57.258667-57.201778 0-31.544889 25.685333-57.230222 57.258667-57.230222s57.258667 25.656889 57.258667 57.230222C626.005333 431.36 600.32 457.016889 568.746667 457.016889zM853.162667 286.008889c-62.805333 0-113.92 51.057778-113.92 113.834667 0 62.748444 51.114667 113.834667 113.92 113.834667 62.833778 0 113.948444-51.086222 113.948444-113.834667C967.111111 337.066667 915.996444 286.008889 853.162667 286.008889zM853.162667 457.016889c-31.544889 0-57.258667-25.656889-57.258667-57.201778 0-31.544889 25.685333-57.230222 57.258667-57.230222s57.287111 25.656889 57.287111 57.230222C910.449778 431.36 884.736 457.016889 853.162667 457.016889z" p-id="9423"></path></svg>