<?xml version="1.0" standalone="no"?><!DOCTYPE svg PUBLIC "-//W3C//DTD SVG 1.1//EN" "http://www.w3.org/Graphics/SVG/1.1/DTD/svg11.dtd"><svg t="1584278702654" class="icon" viewBox="0 0 1024 1024" version="1.1" xmlns="http://www.w3.org/2000/svg" p-id="12926" xmlns:xlink="http://www.w3.org/1999/xlink" width="200" height="200"><defs><style type="text/css"></style></defs><path d="M518.825 552.531l282.444-282.467c28.438-28.415 74.517-28.415 102.953 0l25.717 25.716c28.393 28.415 28.393 74.517 0 102.909v0l-282.489 282.49-206.227 74.245M503.676 695.443l123.817-46.102 6.939-6.94-77.193-77.193-7.030 7.007-46.534 123.228zM582.957 539.49l77.193 77.194 192.416-192.439-77.194-77.17-192.415 192.415zM904.361 321.019l-25.717-25.739c-14.197-14.172-37.281-14.196-51.477 0l-26.080 26.079 77.194 77.148 26.079-26.033c14.196-14.196 14.196-37.283 0-51.455v0zM550.844 206.181v133.523c0 20.092 16.329 36.397 36.42 36.397h56.375l-36.374 36.352h-20.002c-40.23 0-72.795-32.564-72.795-72.748v-163.751h-327.481c-20.092 0-36.374 16.305-36.374 36.397v691.313c0 20.092 16.282 36.397 36.374 36.397h509.443c20.070 0 36.353-16.305 36.353-36.397v-256.501l34.333-36.375v292.875c0 40.185-30.523 72.795-70.686 72.795h-509.443c-40.185 0-68.711-32.61-68.711-72.795v-691.313c0-40.207 28.528-70.753 68.711-70.753h352.29l164.138 174.727-25.444 25.444-127.129-135.588zM550.844 206.181z" p-id="12927"></path><path d="M198.102 833.452h489.495v42.832h-489.495v-42.832z" p-id="12928"></path><path d="M198.102 657.852h244.748v42.564h-244.748v-42.564z" p-id="12929"></path><path d="M198.102 495.216h244.748v42.542h-244.748v-42.542z" p-id="12930"></path><path d="M198.102 326.909h244.748v42.564h-244.748v-42.564z" p-id="12931"></path></svg>