<?xml version="1.0" standalone="no"?><!DOCTYPE svg PUBLIC "-//W3C//DTD SVG 1.1//EN" "http://www.w3.org/Graphics/SVG/1.1/DTD/svg11.dtd"><svg t="1586749063995" class="icon" viewBox="0 0 1075 1024" version="1.1" xmlns="http://www.w3.org/2000/svg" p-id="14007" xmlns:xlink="http://www.w3.org/1999/xlink" width="209.9609375" height="200"><defs><style type="text/css"></style></defs><path d="M174.699505 1024C78.167158 1024 0 943.633112 0 844.491782L0 180.326722C0 81.236549 78.167158 0.869661 174.699505 0.869661L340.753559 0.869661C369.605835 0.869661 393.03552 24.759754 393.03552 54.686317L393.03552 54.686317C393.03552 84.45941 369.810461 108.554129 340.702403 108.554129L183.44727 108.554129C142.573213 120.524754 116.432233 147.279612 104.819703 189.330269L104.819703 835.539392C116.432233 877.590048 142.573213 904.344907 183.44727 916.264375L812.263176 916.264375C853.18839 904.344907 879.227057 877.590048 890.890743 835.539392L890.890743 646.97647C890.890743 617.254534 914.115802 593.159814 943.275016 593.159814L943.275016 593.159814C972.229605 593.159814 995.65929 617.254534 995.65929 647.078783L995.65929 844.491782C995.65929 943.633112 917.492132 1024 821.010941 1024L174.699505 1024 174.699505 1024ZM786.07104 485.014937C775.379328 485.014937 766.478094 482.866364 759.827746 485.014937 738.597792 468.337913 726.166758 447.414897 733.63561 431.147125L733.63561 377.279313C542.207923 363.876305 329.038717 552.234601 279.0588 727.343358 268.111305 688.873657 262.02368 648.306539 262.02368 606.153569 262.02368 371.959035 501.845431 121.547884 733.63561 108.042564L733.63561 54.225908C726.166758 38.009292 738.597792 17.03512 759.827746 0.358096 766.478094 2.506669 775.379328 0.358096 786.07104 0.358096 796.455813 0.358096 808.784533 4.501773 812.263176 0.358096L1051.061797 194.241295C1065.692561 205.649198 1074.286856 223.656292 1074.286856 242.686516 1074.286856 261.767897 1065.692561 279.723835 1051.061797 291.131738L812.263176 485.014937C808.784533 480.922416 796.455813 485.014937 786.07104 485.014937L786.07104 485.014937Z" p-id="14008"></path></svg>