<?xml version="1.0" standalone="no"?><!DOCTYPE svg PUBLIC "-//W3C//DTD SVG 1.1//EN" "http://www.w3.org/Graphics/SVG/1.1/DTD/svg11.dtd"><svg t="1586615365769" class="icon" viewBox="0 0 1024 1024" version="1.1" xmlns="http://www.w3.org/2000/svg" p-id="8658" xmlns:xlink="http://www.w3.org/1999/xlink" width="200" height="200"><defs><style type="text/css"></style></defs><path d="M960.060235 420.803765c-0.120471 0.240941-0.331294 0.481882-0.542117 0.722823L562.296471 913.558588a49.965176 49.965176 0 0 1-39.634824 20.088471c-15.510588 0-29.846588-7.318588-39.424-20.088471L85.835294 421.526588l-0.722823-0.933647a53.76 53.76 0 0 1-1.656471-59.482353l152.937412-243.049412a48.820706 48.820706 0 0 1 41.562353-23.401411h489.381647c16.715294 0 32.346353 8.673882 41.682823 23.220706l0.180706 0.180705 152.606118 242.989177c11.806118 18.221176 11.143529 42.194824-1.746824 59.753412z m-157.635764-158.298353h-203.414589v47.073882h50.838589l-101.737412 211.877647-101.677177-211.877647h25.449412V262.445176H243.079529v47.134118h50.898824l177.904941 400.323765h50.868706l203.414588-400.323765h76.257883V262.505412z" fill="#BF9E6B" p-id="8659"></path></svg>