<?xml version="1.0" standalone="no"?><!DOCTYPE svg PUBLIC "-//W3C//DTD SVG 1.1//EN" "http://www.w3.org/Graphics/SVG/1.1/DTD/svg11.dtd"><svg t="1583295533240" class="icon" viewBox="0 0 1024 1024" version="1.1" xmlns="http://www.w3.org/2000/svg" p-id="10099" xmlns:xlink="http://www.w3.org/1999/xlink" width="200" height="200"><defs><style type="text/css"></style></defs><path d="M512 1024C229.233778 1024 0 794.766222 0 512S229.233778 0 512 0s512 229.233778 512 512-229.233778 512-512 512z m-92.629333-514.958222c59.448889-11.420444 94.051556-51.726222 94.051555-73.159111 0-35.868444-7.580444-90.851556-22.741333-164.977778a20.864 20.864 0 0 0-15.36-16.042667 10.225778 10.225778 0 0 0-12.714667 9.912889v120.291556c0 7.025778-1.052444 25.415111-25.415111 25.415111-23.566222 0-25.400889-18.389333-25.400889-25.415111v-120.704a25.400889 25.400889 0 0 0-50.816 0v120.704c0 7.025778-1.052444 25.415111-25.429333 25.415111-23.552 0-25.400889-18.389333-25.400889-25.415111v-120.291556a10.225778 10.225778 0 0 0-12.700444-9.912889 20.906667 20.906667 0 0 0-15.388445 16.042667c-15.146667 73.415111-22.712889 128.398222-22.712889 164.977778 0 20.437333 33.706667 61.653333 94.037334 73.173333l-17.223112 223.914667a50.816 50.816 0 1 0 100.423112 0l-17.208889-223.928889z m297.315555 53.902222v-101.646222h-0.042666c-1.336889-108.16-47.928889-187.164444-79.786667-216.334222a25.415111 25.415111 0 0 0-47.217778 13.084444V740.792889h2.190222a38.115556 38.115556 0 1 0 71.879111 0h2.161778v-127.061333s50.816-4.48 50.816-50.816z" p-id="10100"></path></svg>