<?xml version="1.0" standalone="no"?><!DOCTYPE svg PUBLIC "-//W3C//DTD SVG 1.1//EN" "http://www.w3.org/Graphics/SVG/1.1/DTD/svg11.dtd"><svg t="1583464534031" class="icon" viewBox="0 0 1024 1024" version="1.1" xmlns="http://www.w3.org/2000/svg" p-id="7027" xmlns:xlink="http://www.w3.org/1999/xlink" width="200" height="200"><defs><style type="text/css"></style></defs><path d="M296.848255 225.077795v-54.138929c0-69.214246 56.201911-125.595235 125.461183-125.595236l180.22842-0.006139c69.177407 0 124.702914 57.018507 124.702914 125.826501v53.913803h-71.769437v-53.915849c0-29.522325-23.059136-54.048879-52.9345-54.048879l-180.224328-0.008186c-29.472183 0-54.01204 24.366918-54.012039 53.836031l0.004093 54.136883h-71.456306zM1014.365591 350.67917c0-49.392845-40.32637-89.712052-89.712051-89.712052H99.350554c-49.438894 0-89.717168 40.32637-89.717169 89.712052v538.272311c0 49.380565 40.278275 89.712052 89.712052 89.712052h825.308103c49.385682 0 89.712052-40.322277 89.712051-89.707959V350.67917z m-143.538873 592.186114V906.893073h50.865379c11.442587 0 20.904057-9.465563 20.904058-20.898941v-50.866403h35.928208v52.434105c0 30.365527-24.888804 55.30345-55.298333 55.30345h-52.399312z m-717.653436-646.060008v35.928209l-50.866403 0.002047c-11.437471 0-20.904057 9.505472-20.904057 20.940896v50.826494H45.47052v-52.388056c0-30.369621 24.90313-55.309589 55.312659-55.30959h52.390103z m181.225119 500.633138l-0.008186 0.008186c-45.4828-45.437774-73.557149-108.236927-73.561243-177.632298 0-69.344206 28.083559-132.146428 73.561243-177.583179 45.442891-45.484846 108.246137-73.615477 177.586249-73.609338 69.395371 0 132.194524 28.120398 177.629228 73.609338 45.486893 45.438798 73.566359 108.23181 73.566359 177.583179 0 69.394348-28.078443 132.189407-73.566359 177.632298-45.434704 45.4828-108.233857 73.558172-177.629228 73.566359-69.345229-0.001023-132.143359-28.083559-177.578063-73.574545z m536.428317-500.633138h52.399312c30.40953 0 55.298333 24.939969 55.298333 55.30959v52.388056h-35.928208v-50.826494c0-11.435424-9.46147-20.940896-20.904058-20.940896l-50.865379-0.002047v-35.928209z m-717.653436 646.060008H100.782156c-30.40953 0-55.312659-24.937922-55.312659-55.30345v-52.434105h35.933325v50.866403c0 11.433377 9.466587 20.898941 20.904057 20.898941h50.866403v35.972211z" p-id="7028"></path><path d="M453.665523 444.874317h116.66793v116.617788h116.625975v116.634161h-116.625975v116.631091H453.665523V678.126266h-116.625974V561.492105h116.625974z" p-id="7029"></path></svg>