<?xml version="1.0" standalone="no"?><!DOCTYPE svg PUBLIC "-//W3C//DTD SVG 1.1//EN" "http://www.w3.org/Graphics/SVG/1.1/DTD/svg11.dtd"><svg t="1583464715589" class="icon" viewBox="0 0 1024 1024" version="1.1" xmlns="http://www.w3.org/2000/svg" p-id="7585" xmlns:xlink="http://www.w3.org/1999/xlink" width="200" height="200"><defs><style type="text/css"></style></defs><path d="M165.980957 13.793117h685.286325c19.842891 0 36.104217 16.232674 36.104217 36.074541v924.262637c0 19.842891-16.26235 36.075565-36.104217 36.075565h-685.286325c-19.842891 0-36.104217-16.232674-36.104217-36.075565V49.868681c0-19.842891 16.26235-36.075565 36.104217-36.075564z m420.171755 120.376384c-5.753016 0-10.39063 4.66729-10.39063 10.360954V251.610025c0 5.724363 4.637614 10.361978 10.39063 10.361978h107.07957c5.693664 0 10.332302-4.637614 10.332302-10.361978V144.531479c0-5.693664-4.637614-10.360955-10.332302-10.360955H586.152712v-0.001023z m0 378.740216c-5.753016 0-10.39063 4.66729-10.39063 10.361978v107.07957c0 5.693664 4.637614 10.360955 10.39063 10.360955h107.07957c5.693664 0 10.332302-4.66729 10.332302-10.360955V523.271695c0-5.694688-4.637614-10.361978-10.332302-10.361978H586.152712z m0-189.35527c-5.753016 0-10.39063 4.637614-10.39063 10.360955v107.079569c0 5.694688 4.637614 10.361978 10.39063 10.361978h107.07957c5.693664 0 10.332302-4.66729 10.332302-10.361978v-107.078546c0-5.72334-4.637614-10.360955-10.332302-10.360955H586.152712v-0.001023zM324.01698 134.169501c-5.693664 0-10.332302 4.66729-10.332302 10.360954V251.610025c0 5.724363 4.637614 10.361978 10.332302 10.361978h107.07957c5.72334 0 10.39063-4.637614 10.390631-10.361978V144.531479c0-5.693664-4.66729-10.360955-10.390631-10.360955H324.01698v-0.001023z m0 378.740216c-5.693664 0-10.332302 4.66729-10.332302 10.361978v107.07957c0 5.693664 4.637614 10.360955 10.332302 10.360955h107.07957c5.72334 0 10.39063-4.66729 10.390631-10.360955V523.271695c0-5.694688-4.66729-10.361978-10.390631-10.361978H324.01698z m0-189.35527c-5.693664 0-10.332302 4.637614-10.332302 10.360955v107.079569c0 5.694688 4.637614 10.361978 10.332302 10.361978h107.07957c5.72334 0 10.39063-4.66729 10.390631-10.361978v-107.078546c0-5.72334-4.66729-10.360955-10.390631-10.360955H324.01698v-0.001023z m136.138338 444.872271c-11.154015 0-20.312587 9.099221-20.312587 20.281888v175.853796c0 11.152992 9.157549 20.281888 20.312587 20.281888h96.937603c11.152992 0 20.312587-9.128896 20.312587-20.281888V788.709629c0-11.183691-9.158572-20.281888-20.312587-20.281888h-96.937603z" p-id="7586"></path><path d="M76.337467 954.406108H947.66151V1010.20586H76.337467z" p-id="7587"></path></svg>