<?xml version="1.0" standalone="no"?><!DOCTYPE svg PUBLIC "-//W3C//DTD SVG 1.1//EN" "http://www.w3.org/Graphics/SVG/1.1/DTD/svg11.dtd"><svg t="1584197692949" class="icon" viewBox="0 0 1024 1024" version="1.1" xmlns="http://www.w3.org/2000/svg" p-id="11586" xmlns:xlink="http://www.w3.org/1999/xlink" width="200" height="200"><defs><style type="text/css"></style></defs><path d="M499.954151 445.465654c23.096021 0 38.535665-15.465227 38.535665-38.504966 0-23.298636-15.409968-38.369889-38.535665-38.369889-23.130813 0-46.339398 15.071254-46.339398 38.369889C453.640336 429.999404 476.85199 445.465654 499.954151 445.465654L499.954151 445.465654z" p-id="11587"></path><path d="M284.420283 368.590799c-23.098068 0-46.450938 15.071254-46.450938 38.369889 0 23.039739 23.352871 38.504966 46.450938 38.504966 23.016203 0 38.425148-15.465227 38.425148-38.504966C322.819848 383.66103 307.436486 368.590799 284.420283 368.590799L284.420283 368.590799z" p-id="11588"></path><path d="M960.595436 691.987281c0-121.815393-113.000634-225.608318-251.707742-236.412384 0.193405-1.51654 0.278339-3.089361-0.060375-4.660136C681.015903 321.239352 541.579177 223.480864 384.452557 223.480864c-177.554882 0-322.017064 123.805724-322.017064 275.989775 0 81.647555 41.679261 155.212014 120.66315 213.227336l-27.535123 82.773192c-1.768273 5.38873-0.166799 11.311627 4.124947 15.045671 2.612501 2.243087 5.89322 3.421936 9.207709 3.421936 2.13257 0 4.295839-0.505513 6.287193-1.485841l103.373369-51.732222 12.741185 2.582825c31.828916 6.53995 59.307757 12.21009 93.154633 12.21009 9.965979 0 20.069081-0.449231 29.978778-1.289366 4.013407-0.338714 7.40976-2.359744 9.708106-5.276167 37.272905 93.264127 140.004661 160.596651 260.889869 160.596651 30.960129 0 62.310138-7.465019 90.434685-14.508435l79.68076 43.558052c2.108011 1.152243 4.437056 1.74269 6.736425 1.74269 3.143597 0 6.288217-1.066285 8.813736-3.118014 4.432962-3.593851 6.257517-9.511631 4.603855-14.930037l-20.351514-67.672262C923.180292 820.704874 960.595436 756.202814 960.595436 691.987281L960.595436 691.987281zM412.047032 746.239905c-9.122775 0.784876-18.386766 1.177825-27.564799 1.177825-30.984688 0-57.20077-5.362124-87.513146-11.618619l-17.627473-3.563152c-3.03308-0.64673-6.232958-0.227174-9.007141 1.204431l-77.441766 38.762839 20.125363-60.46c1.965771-5.91778-0.196475-12.376888-5.27719-15.940041-77.80504-54.228065-117.235075-120.3009-117.235075-196.331527 0-136.689149 131.857097-247.919463 293.946752-247.919463 143.287427 0 270.151813 87.174432 296.336172 203.122187-150.242839 1.965771-271.804453 107.582227-271.804453 237.313917 0 18.86158 2.864234 37.130665 7.692193 54.759161C415.216211 746.382145 413.673066 746.099712 412.047032 746.239905L412.047032 746.239905zM830.305021 858.145601c-4.683672 3.53757-6.67605 9.627265-4.993734 15.242146l13.276375 44.147476-54.479799-29.807886c-2.078335-1.14815-4.408403-1.738597-6.738471-1.738597-1.147126 0-2.299369 0.141216-3.420913 0.448208-29.221532 7.383154-59.449997 14.991436-88.88847 14.991436-136.749524 0-247.980861-93.973278-247.980861-209.472825 0-115.496477 111.231337-209.439056 247.980861-209.439056 134.131907 0 247.471254 95.90835 247.471254 209.439056C932.531264 749.551324 896.238686 808.575626 830.305021 858.145601L830.305021 858.145601z" p-id="11589"></path><path d="M600.098989 591.869049c-15.409968 0-30.818913 15.520485-30.818913 30.903847 0 15.490809 15.410991 30.789237 30.818913 30.789237 23.152303 0 38.45073-15.298428 38.45073-30.789237C638.549719 607.363951 623.251292 591.869049 600.098989 591.869049L600.098989 591.869049z" p-id="11590"></path><path d="M769.400906 591.869049c-15.182794 0-30.592762 15.520485-30.592762 30.903847 0 15.490809 15.410991 30.789237 30.592762 30.789237 23.071462 0 38.648229-15.298428 38.648229-30.789237C808.049135 607.363951 792.502044 591.869049 769.400906 591.869049L769.400906 591.869049z" p-id="11591"></path></svg>