<?xml version="1.0" standalone="no"?><!DOCTYPE svg PUBLIC "-//W3C//DTD SVG 1.1//EN" "http://www.w3.org/Graphics/SVG/1.1/DTD/svg11.dtd"><svg t="1583295612512" class="icon" viewBox="0 0 1024 1024" version="1.1" xmlns="http://www.w3.org/2000/svg" p-id="10376" xmlns:xlink="http://www.w3.org/1999/xlink" width="200" height="200"><defs><style type="text/css"></style></defs><path d="M713.9 841.4H310.1c-68.7 0-124.6-55.9-124.6-124.6V257.6c0-68.7 55.9-124.6 124.6-124.6H714c68.7 0 124.6 55.9 124.6 124.6v459.2c0 68.7-55.9 124.6-124.7 124.6zM310.1 169.3c-48.6 0-88.2 39.6-88.2 88.2v459.2c0 48.7 39.6 88.2 88.2 88.2H714c48.7 0 88.2-39.6 88.2-88.2V257.6c0-48.6-39.6-88.2-88.2-88.2H310.1z" p-id="10377"></path><path d="M815.2 505.4H208.8c-10.1 0-18.2-8.1-18.2-18.2s8.2-18.2 18.2-18.2h606.4c10.1 0 18.2 8.1 18.2 18.2s-8.2 18.2-18.2 18.2zM145.1 530.2c-10.1 0-18.2-8.1-18.2-18.2v-86.9c0-10.1 8.2-18.2 18.2-18.2 10.1 0 18.2 8.1 18.2 18.2V512c0 10.1-8.2 18.2-18.2 18.2zM878.9 530.2c-10.1 0-18.2-8.1-18.2-18.2v-86.9c0-10.1 8.1-18.2 18.2-18.2s18.2 8.1 18.2 18.2V512c0 10.1-8.1 18.2-18.2 18.2zM307.8 891.1c-10.1 0-18.2-8.1-18.2-18.2v-49.7c0-10.1 8.2-18.2 18.2-18.2s18.2 8.1 18.2 18.2v49.7c0 10-8.2 18.2-18.2 18.2zM716.2 891.1c-10.1 0-18.2-8.1-18.2-18.2v-49.7c0-10.1 8.1-18.2 18.2-18.2s18.2 8.1 18.2 18.2v49.7c0 10-8.1 18.2-18.2 18.2z" p-id="10378"></path><path d="M340.3 647.3m-49.9 0a49.9 49.9 0 1 0 99.8 0 49.9 49.9 0 1 0-99.8 0Z" p-id="10379"></path><path d="M713.4 647.3m-49.9 0a49.9 49.9 0 1 0 99.8 0 49.9 49.9 0 1 0-99.8 0Z" p-id="10380"></path><path d="M325.5 685.8c-29.4 0-53.3-23.9-53.3-53.3s23.9-53.3 53.3-53.3 53.3 23.9 53.3 53.3-23.9 53.3-53.3 53.3z m0-70.2c-9.3 0-16.9 7.6-16.9 16.9 0 9.3 7.6 16.9 16.9 16.9s16.9-7.6 16.9-16.9c0-9.3-7.6-16.9-16.9-16.9zM698.5 685.8c-29.4 0-53.3-23.9-53.3-53.3s23.9-53.3 53.3-53.3 53.3 23.9 53.3 53.3c0.1 29.4-23.9 53.3-53.3 53.3z m0-70.2c-9.3 0-16.9 7.6-16.9 16.9 0 9.3 7.6 16.9 16.9 16.9s16.9-7.6 16.9-16.9c0.1-9.3-7.5-16.9-16.9-16.9z" p-id="10381"></path><path d="M507.6 505.5c-4.7 0-9.3-1.8-12.9-5.3l-88.9-88.9c-7.1-7.1-7.1-18.6 0-25.7 7.1-7.1 18.7-7.1 25.7 0l88.9 88.9c7.1 7.1 7.1 18.6 0 25.7-3.4 3.5-8.1 5.3-12.8 5.3zM605.3 505.4c-4.7 0-9.3-1.8-12.9-5.3l-88.9-88.9c-7.1-7.1-7.1-18.6 0-25.7 7.1-7.1 18.6-7.1 25.7 0l88.9 88.9c7.1 7.1 7.1 18.6 0 25.7-3.5 3.5-8.2 5.3-12.8 5.3z" p-id="10382"></path></svg>